<svg width="22px" height="18px" viewBox="0 0 22 18" version="1.1"
     xmlns="http://www.w3.org/2000/svg" xmlns:xlink="http://www.w3.org/1999/xlink">
    <g id="Page-1" stroke="none" stroke-width="1" fill="none" fill-rule="evenodd">
        <g id="Productos" transform="translate(-1251.000000, -440.000000)" fill="#48D2A0"
           fill-rule="nonzero">
            <path d="M1262,440 C1267.48221,440 1272.04326,443.88 1273,449 C1272.04427,454.12 1267.48221,458 1262,458 C1256.51779,458 1251.95674,454.12 1251,449 C1251.95573,443.88 1256.51779,440 1262,440 Z M1262,456 C1266.27039,455.999089 1269.97302,453.09469 1270.92384,449 C1269.96955,444.908698 1266.26781,442.008528 1262,442.008528 C1257.73219,442.008528 1254.03045,444.908698 1253.07616,449 C1254.02698,453.09469 1257.72961,455.999089 1262,456 Z M1262,453.5 C1259.47314,453.5 1257.42472,451.485281 1257.42472,449 C1257.42472,446.514719 1259.47314,444.5 1262,444.5 C1264.52686,444.5 1266.57528,446.514719 1266.57528,449 C1266.57528,451.485281 1264.52686,453.5 1262,453.5 Z M1262,451.5 C1263.40381,451.5 1264.54182,450.380712 1264.54182,449 C1264.54182,447.619288 1263.40381,446.5 1262,446.5 C1260.59619,446.5 1259.45818,447.619288 1259.45818,449 C1259.45818,450.380712 1260.59619,451.5 1262,451.5 Z"
                  id="Shape"></path>
        </g>
    </g>
</svg>
