<svg width="15px" height="19px" viewBox="0 0 15 19" version="1.1"
     xmlns="http://www.w3.org/2000/svg"
     xmlns:xlink="http://www.w3.org/1999/xlink">
    <g id="Page-1" stroke="none" stroke-width="1" fill="none" fill-rule="evenodd">
        <g id="Productos" transform="translate(-1280.000000, -386.000000)" fill="#D66C79">
            <g id="Group-2" transform="translate(314.000000, 385.000000)">
                <g id="cubo-de-basura" transform="translate(966.000000, 1.000000)">
                    <g id="Group-4">
                        <path d="M13.6871941,2.23088907 L11.1575285,2.23088907 L11.1575285,0.587055465 C11.1575285,0.256174551 10.8906362,1.59872116e-14 10.5597798,1.59872116e-14 C10.5276754,1.59872116e-14 10.5062643,0.0107177814 10.4958157,0.021411093 C10.4850979,0.0107177814 10.4636868,1.59872116e-14 10.4529935,1.59872116e-14 L4.50763458,1.59872116e-14 L4.4650571,1.59872116e-14 L4.42223491,1.59872116e-14 C4.09137847,1.59872116e-14 3.83520392,0.256174551 3.83520392,0.587055465 L3.83520392,2.23091354 L1.29484502,2.23091354 C0.568898858,2.23091354 0.00325448613,2.79655791 0.00325448613,3.52250408 L0.00325448613,4.46182708 L0.00325448613,5.63591354 L1.12404568,5.63591354 L1.12404568,17.6652773 C1.12404568,18.391248 1.67899674,18.9461746 2.4049429,18.9461746 L12.5771207,18.9461746 C13.3030669,18.9461746 13.8686868,18.391248 13.8686868,17.6652773 L13.8686868,5.63591354 L14.9787847,5.63591354 L14.9787847,4.46182708 L14.9787847,3.52250408 C14.9787847,2.79655791 14.4129201,2.23088907 13.6871941,2.23088907 Z M5.00929038,1.17408646 L9.97274878,1.17408646 L9.97274878,2.23088907 L5.00929038,2.23088907 L5.00929038,1.17408646 Z M12.683907,17.6653018 C12.683907,17.7402039 12.6518026,17.7720636 12.5771207,17.7720636 L2.4049429,17.7720636 C2.33026101,17.7720636 2.29815661,17.7401794 2.29815661,17.6653018 L2.29815661,5.63588907 L12.683907,5.63588907 L12.683907,17.6653018 Z M13.7940049,4.46180261 L1.18803426,4.46180261 L1.18803426,3.52247961 C1.18803426,3.44777325 1.22013866,3.40497553 1.29482055,3.40497553 L13.6871941,3.40497553 C13.7619005,3.40497553 13.7940049,3.44777325 13.7940049,3.52247961 L13.7940049,4.46180261 Z"
                              id="Shape" fill-rule="nonzero"></path>
                        <rect id="Rectangle" x="9.64186786" y="7.01287928"
                              width="1.18477977"
                              height="9.71309951"></rect>
                        <rect id="Rectangle" x="6.909323" y="7.01287928" width="1.18477977"
                              height="9.71309951"></rect>
                        <rect id="Rectangle" x="4.17675367" y="7.01287928"
                              width="1.18477977"
                              height="9.71309951"></rect>
                    </g>
                </g>
            </g>
        </g>
    </g>
</svg>
