<svg width="17px" height="18px" viewBox="0 0 17 18" version="1.1"
     xmlns="http://www.w3.org/2000/svg" xmlns:xlink="http://www.w3.org/1999/xlink">
    <g id="Page-1" stroke="none" stroke-width="1" fill="none" fill-rule="evenodd">
        <g id="Productos" transform="translate(-1303.000000, -440.000000)" fill="#59A2F8">
            <g id="Group-2" transform="translate(314.000000, 438.000000)">
                <g id="escritura" transform="translate(989.000000, 2.000000)">
                    <path d="M11.4770742,7.734375 C11.4770742,7.34603906 11.1622852,7.03125 10.7739492,7.03125 L3.53176172,7.03125 C3.14342578,7.03125 2.82863672,7.34603906 2.82863672,7.734375 C2.82863672,8.12271094 3.14342578,8.4375 3.53176172,8.4375 L10.7739492,8.4375 C11.1622852,8.4375 11.4770742,8.12271094 11.4770742,7.734375 Z"
                          id="Path"></path>
                    <path d="M3.53176172,9.84375 C3.14342578,9.84375 2.82863672,10.1585391 2.82863672,10.546875 C2.82863672,10.9352109 3.14342578,11.25 3.53176172,11.25 L7.93019531,11.25 C8.31853125,11.25 8.63332031,10.9352109 8.63332031,10.546875 C8.63332031,10.1585391 8.31853125,9.84375 7.93019531,9.84375 L3.53176172,9.84375 Z"
                          id="Path"></path>
                    <path d="M5.18410547,16.59375 L2.83253906,16.59375 C2.05713281,16.59375 1.42628906,15.9629062 1.42628906,15.1875 L1.42628906,2.8125 C1.42628906,2.03709375 2.05713281,1.40625 2.83253906,1.40625 L11.4770742,1.40625 C12.2524805,1.40625 12.8833242,2.03709375 12.8833242,2.8125 L12.8833242,7.13671875 C12.8833242,7.52505469 13.1981133,7.83984375 13.5864492,7.83984375 C13.9747852,7.83984375 14.2895742,7.52505469 14.2895742,7.13671875 L14.2895742,2.8125 C14.2895742,1.2616875 13.0278867,0 11.4770742,0 L2.83253906,0 C1.28172656,0 0.0200390625,1.2616875 0.0200390625,2.8125 L0.0200390625,15.1875 C0.0200390625,16.7383125 1.28172656,18 2.83253906,18 L5.18410547,18 C5.57244141,18 5.88723047,17.6852109 5.88723047,17.296875 C5.88723047,16.9085391 5.57244141,16.59375 5.18410547,16.59375 Z"
                          id="Path"></path>
                    <path d="M10.7739492,4.21875 L3.53176172,4.21875 C3.14342578,4.21875 2.82863672,4.53353906 2.82863672,4.921875 C2.82863672,5.31021094 3.14342578,5.625 3.53176172,5.625 L10.7739492,5.625 C11.1622852,5.625 11.4770742,5.31021094 11.4770742,4.921875 C11.4770742,4.53353906 11.1622852,4.21875 10.7739492,4.21875 Z"
                          id="Path"></path>
                    <path d="M15.5349844,10.1802656 C14.7125391,9.35782031 13.3743516,9.35778516 12.5524336,10.1797031 L8.69217187,14.0314219 C8.6101875,14.1132305 8.54971875,14.2139883 8.51603906,14.3248008 L7.67534766,17.0924766 C7.60081641,17.3378672 7.66575,17.6043164 7.84483594,17.7878672 C7.97899219,17.9253633 8.16124219,18 8.34816797,18 C8.41071094,18 8.47385156,17.9916328 8.53583203,17.9744414 L11.3738203,17.1883125 C11.4906094,17.1559687 11.5970625,17.0939883 11.6828437,17.0083477 L15.5350195,13.1634141 C16.3574648,12.3409687 16.3574648,11.0027812 15.5349844,10.1802656 Z M10.82025,15.8824687 L9.39248437,16.2779766 L9.81031641,14.9023477 L12.4150078,12.3034219 L13.4095781,13.2979922 L10.82025,15.8824687 Z M14.5411523,12.1686328 L14.4049219,12.304582 L13.4105273,11.3101875 L13.5463008,11.1746953 C13.8204492,10.9005469 14.2665117,10.9005469 14.5406602,11.1746953 C14.8148086,11.4488437 14.8148086,11.8949062 14.5411523,12.1686328 Z"
                          id="Shape" fill-rule="nonzero"></path>
                </g>
            </g>
        </g>
    </g>
</svg>
