
<svg width="20px" height="20px" viewBox="0 0 20 20" version="1.1" xmlns="http://www.w3.org/2000/svg" xmlns:xlink="http://www.w3.org/1999/xlink">
    <defs>
        <polygon id="path-1" points="0 0.257324324 19.7430137 0.257324324 19.7430137 19.7297297 0 19.7297297"></polygon>
    </defs>
    <g id="Page-1" stroke="none" stroke-width="1" fill="none" fill-rule="evenodd">
        <g id="face">
            <g id="Group-3" transform="translate(0.000000, 0.012865)">
                <g id="Fill-1-Clipped">
                    <mask id="mask-2" fill="white">
                        <use xlink:href="#path-1"></use>
                    </mask>
                    <g id="path-1"></g>
                    <path d="M19.7430685,10.2465135 C19.7033425,10.6213784 19.6816986,10.9992162 19.6208767,11.3705676 C19.0575891,14.7881351 17.2134795,17.3121892 14.0485479,18.790027 C8.20936986,21.5162432 1.37758904,18.0462432 0.172931507,11.7973243 C-0.840767124,6.53867568 2.70553424,1.41624324 8.04279451,0.437594595 C8.41868492,0.368675676 8.80279451,0.343540541 9.18306849,0.296783784 C9.27210959,0.285972973 9.3608767,0.270567568 9.44991781,0.257324324 L10.2863562,0.257324324 C10.3543014,0.269216216 10.4222466,0.287864865 10.4904658,0.291918919 C11.5773151,0.357054054 12.6329315,0.574891892 13.6285479,1.00948649 C17.0006027,2.48245946 19.0071781,5.01462162 19.6184109,8.60840541 C19.6827945,8.98516216 19.7027945,9.37002703 19.7430685,9.75110811 L19.7430685,10.2465135 Z" id="Fill-1" fill="#EC008B" mask="url(#mask-2)"></path>
                </g>
            </g>
            <path d="M8.53857535,10.0041892 L7.53282192,10.0041892 L7.53282192,8.03472973 L8.52323286,8.03472973 C8.52323286,7.93337838 8.52076714,7.85418919 8.52350684,7.77527027 C8.53857535,7.39094595 8.51419178,7.00040541 8.57884932,6.62418919 C8.73583562,5.71554054 9.34953424,5.14716216 10.2799452,5.07743243 C10.9029589,5.03013514 11.5325479,5.06797297 12.1889863,5.06797297 L12.1889863,5.96959459 C12.1889863,6.16202703 12.1810411,6.35527027 12.1914521,6.54743243 C12.1988493,6.69635135 12.1558356,6.75662162 11.9930959,6.74986486 C11.7007671,6.7377027 11.4076164,6.74418919 11.1144658,6.74716216 C10.7813151,6.75040541 10.6248767,6.89689189 10.6163836,7.2222973 C10.6095342,7.48175676 10.6150137,7.74121622 10.6150137,8.02689189 L12.2043288,8.02689189 C12.2043288,8.08608108 12.2073425,8.11959459 12.2040548,8.15256757 C12.1448767,8.76094595 12.0848767,9.36959459 12.0232329,9.99986486 L10.5437808,9.99986486 L10.5437808,14.9541892 L8.53857535,14.9541892 L8.53857535,10.0041892 Z" id="Fill-4" fill="#FFFFFF"></path>
        </g>
    </g>
</svg>
