<svg width="90px" height="100px" viewBox="0 0 90 100" version="1.1" xmlns="http://www.w3.org/2000/svg" xmlns:xlink="http://www.w3.org/1999/xlink">
    <g id="Page-1" stroke="none" stroke-width="1" fill="none" fill-rule="evenodd">
        <g id="file">
            <path d="M90,65 L55,65 L55,100 L4.99,100 C2.235,100 0,97.725 0,95.04 L0,4.96 C0,2.22 2.225,0 4.965,0 L85.035,0 C86.3610926,0.0092501576 87.6291937,0.544926445 88.5603188,1.4891792 C89.4914439,2.43343196 90.0093151,3.70890782 90,5.035 L90,65 Z M90,75 L65,99.985 L65,75 L90,75 Z" id="Shape" fill="#EC008C" fill-rule="nonzero"></path>
            <path d="M65,30.8679826 C65,24.3138066 59.6870423,19 53.1328664,19 C49.9822774,19 47.1245888,20.2335774 45.0004245,22.2363366 C42.8754112,20.2335774 40.0177226,19 36.8688316,19 C30.3129577,19 25,24.3138066 25,30.8679826 C25,33.4531466 25.8311578,35.8413456 27.2345325,37.7880717 L34.5010082,37.7880717 L31.991404,34.2910963 C31.3096678,33.3232516 30.9106442,32.1423114 30.9106442,30.8679826 C30.9106442,27.5773108 33.5773108,24.9097952 36.8679826,24.9097952 C39.0082776,24.9106442 40.8845378,26.0389473 41.9355831,27.7326754 L42.1096254,27.9950122 L44.9902367,32.0030776 L47.6670912,28.2862146 L48.1297888,27.630797 C49.191022,25.993102 51.0350207,24.9097952 53.1328664,24.9097952 C56.4226892,24.9097952 59.0902048,27.5773108 59.0902048,30.8679826 C59.0902048,32.1389154 58.6920301,33.3164597 58.0128409,34.2843044 L49.8124801,45.707418 C49.8150271,45.7048711 49.818423,45.7014751 49.82097,45.6980792 L49.7878595,45.7422265 L49.8124801,45.707418 C48.7291733,47.1897485 46.9768651,48.1533482 45.0004245,48.1533482 C43.017192,48.1541972 41.2614878,47.1855036 40.1773321,45.6963812 L39.7256712,45.0681312 L32.3895787,45.0681312 L35.4136687,49.2672185 L35.4841346,49.2672185 C37.6473522,52.1732994 41.0984824,54.0631434 45.0004245,54.0631434 C48.9015176,54.0631434 52.3526478,52.1732994 54.5150164,49.2672185 L54.5243553,49.2672185 L54.7629205,48.9361138 C54.793484,48.8919665 54.8265945,48.8503661 54.856309,48.8062188 L62.7196222,37.8848562 L62.7026425,37.8814603 C64.1467685,35.9177544 65,33.4930489 65,30.8679826" id="Fill-16" fill="#FFFFFF"></path>
        </g>
    </g>
</svg>
