<svg width="20px" height="20px" viewBox="0 0 20 20" version="1.1" xmlns="http://www.w3.org/2000/svg" xmlns:xlink="http://www.w3.org/1999/xlink">
    <g id="Page-1" stroke="none" stroke-width="1" fill="none" fill-rule="evenodd">
        <g id="inst">
            <g id="Group-3" transform="translate(0.000000, 0.013797)" fill="#EC008B" fill-rule="nonzero">
                <g id="Fill-1-Clipped">
                    <path d="M0.246880287,9.8437971 C0.246292635,15.1649565 4.61489299,19.4765507 10.0045376,19.473942 C15.3924193,19.4704638 19.7433901,15.1811884 19.755437,9.86118841 C19.76719,4.55017391 15.393007,0.231913043 9.99924875,0.229014493 C4.62605838,0.226115942 0.247467936,4.54292754 0.246880287,9.8437971 Z" id="Fill-1"></path>
                </g>
            </g>
            <path d="M10.006565,14.7732464 L12.1961541,14.7732464 C12.3891975,14.7732464 12.5819472,14.7602029 12.7720524,14.7225217 C13.4360985,14.5903478 13.9808513,14.2628116 14.3998467,13.7390435 C14.7947485,13.2448406 14.9827969,12.6775942 14.9827969,12.0488986 C14.9830907,10.5929565 14.9830907,9.13817391 14.9827969,7.68223188 C14.9827969,7.43150725 14.9531205,7.18455072 14.884953,6.94223188 C14.7309883,6.39585507 14.4339305,5.93846377 13.9905475,5.57730435 C13.4792908,5.16223188 12.8892889,4.95933333 12.2264181,4.95962319 C10.7458305,4.95991304 9.26524281,4.95991304 7.78465516,4.95933333 C7.60806591,4.95933333 7.4329458,4.97237681 7.25900099,5.00628986 C6.53501449,5.14657971 5.95676554,5.5144058 5.52983681,6.10744928 C5.18988049,6.57875362 5.03297757,7.10918841 5.03356522,7.68715942 C5.03503435,9.13875362 5.03327139,10.5897681 5.03532817,12.0413623 C5.035622,12.1816522 5.04326148,12.3225217 5.06265397,12.4607826 C5.11524875,12.8433913 5.24893945,13.1975942 5.45961246,13.5231014 C5.75960849,13.983971 6.16391264,14.3257101 6.67164345,14.5474493 C7.03275522,14.7045507 7.41179035,14.7738261 7.80522296,14.7735362 C8.53890571,14.7726667 9.27288226,14.7732464 10.006565,14.7732464 M7.6603669,4.466 L12.3527632,4.466 C12.4370911,4.47382609 12.5220068,4.47991304 12.6060409,4.48918841 C12.9791995,4.52715942 13.3344348,4.6286087 13.6693961,4.7944058 C14.3898567,5.1517971 14.910222,5.69643478 15.2281414,6.42744928 C15.3471408,6.70049275 15.422654,6.986 15.4558563,7.28136232 C15.4632019,7.35063768 15.471429,7.41904348 15.4790685,7.48773913 L15.4790685,12.2413623 C15.4764241,12.2549855 15.4726043,12.2683188 15.4717228,12.2822319 C15.4561501,12.5433913 15.4070812,12.7978841 15.3253977,13.0457101 C15.1493961,13.5810725 14.8538074,14.0413623 14.4321676,14.4196232 C13.8201286,14.9694783 13.0987866,15.2575942 12.2716673,15.2613623 C10.7725686,15.2671594 9.27376374,15.2625217 7.77466507,15.2628116 C7.40620765,15.2628116 7.04832797,15.2048406 6.701026,15.0836812 C6.12806591,14.8836812 5.64707325,14.5512174 5.26392455,14.0862899 C4.7738233,13.4906377 4.53553067,12.8057101 4.53553067,12.0390435 C4.53582449,10.6097681 4.53582449,9.17962319 4.53553067,7.75005797 C4.53523684,7.55904348 4.54434545,7.36918841 4.57284652,7.18078261 C4.63366846,6.78049275 4.76735913,6.40542029 4.97421243,6.05701449 C5.27362081,5.55237681 5.68203852,5.15614493 6.19917174,4.87063768 C6.59877467,4.64976812 7.02776017,4.51904348 7.48524678,4.48107246 C7.54371809,4.47643478 7.60160174,4.47092754 7.6603669,4.466" id="Fill-4" fill="#FFFFFF" fill-rule="nonzero"></path>
            <path d="M12.2455461,9.86834783 C12.2478968,8.64747826 11.2518277,7.66110145 10.0130586,7.65762319 C8.77517093,7.65443478 7.77322533,8.63675362 7.76999325,9.85675362 C7.76617351,11.079942 8.76165496,12.0706667 9.99601667,12.0726957 C11.2441882,12.0750145 12.2431956,11.0961739 12.2455461,9.86834783 M12.7438745,9.86544928 C12.7432869,11.3518261 11.5115696,12.5677681 10.0068882,12.5651594 C8.49309826,12.5625507 7.27019574,11.3495072 7.27225252,9.85182609 C7.27401548,8.3755942 8.5092587,7.164 10.010708,7.16689855 C11.5171523,7.16892754 12.7444622,8.38081159 12.7438745,9.86544928" id="Fill-6" fill="#FFFFFF" fill-rule="nonzero"></path>
            <path d="M12.9901298,7.41110145 C12.7154028,7.41052174 12.4932706,7.18907246 12.4944459,6.91863768 C12.495915,6.65023188 12.7206917,6.42994203 12.9924804,6.42994203 C13.2692642,6.42994203 13.4899273,6.65255072 13.4890459,6.93052174 C13.4881644,7.19457971 13.2630939,7.41168116 12.9901298,7.41110145" id="Fill-8" fill="#FFFFFF"></path>
        </g>
    </g>
</svg>
